<svg xmlns="http://www.w3.org/2000/svg" width="200" height="200" viewBox="0 0 200 200">
  <defs>
    <style>
      .cls-1 {
        fill: #fff;
        fill-rule: evenodd;
      }
    </style>
  </defs>
  <path class="cls-1" d="M187.811,157.865l-1.136.082-0.312.55-2,.321-0.586.394-0.55-.311-0.156.275-1.254-.349-0.156.275c-1.877-.262-3.44-1.844-4.945-2.8-0.06-.941-0.627-1.183-1.024-2.035q-0.1-.785-0.2-1.568l-0.393-.586,0.312-.55a7.711,7.711,0,0,1-.512-1.018l-4.4-2.493-0.156.275q-0.549-.312-1.1-0.623l-0.156.275-5.493-3.117-0.156.275q-0.825-.467-1.648-0.935l-0.156.275q-2.335-1.323-4.67-2.649l-0.156.275-3.021-1.714-0.156.275-3.571-2.025-0.156.275-1.374-.779-0.156.275-2.2-1.247a19.976,19.976,0,0,0-5.531-2.41,33,33,0,0,1-5.742,6.921l-1.522,2.044-0.275-.156-0.312.55-0.275-.155-1.367,1.769-0.274-.156-0.468.825-0.275-.156-0.312.55-0.275-.156-1.054,1.22-0.275-.156-0.468.825-0.7-.037-0.78,1.375c0.882,1.52.771,3.859,2.129,5.207l-0.312.55c0.841,0.825.9,1.915,1.261,2.9l-0.156.276,0.55,0.311,0.318,2,0.55,0.312q0.337,1.645.674,3.291l0.55,0.312c0.419,0.914-.133,1.3.868,2.31,0.894-.328,1.3.1,2.391,0.265l0.156-.275c2.241,0.4,3.284,2.073,5.063,3.236,0.027,1.093.629,1.962,0.83,3.016l0.275,0.156-0.312.55,0.275,0.155a2.482,2.482,0,0,1-.387,1.962,6.747,6.747,0,0,1-1.479,3.887l-0.275-.156-0.624,1.1-0.274-.156-0.468.825-0.275-.156-0.312.551-0.275-.156-0.312.55L136,182.636l-0.312.55-0.275-.156-1.448.633-0.549-.312c-1.24.129-.715,0.956-2.547,0.01a6.761,6.761,0,0,1-4.157-1.632c0.051-.092.1-0.183,0.156-0.275l-1.1-.623,0.156-.275-0.943-.9q0.02-.353.037-0.705l-0.549-.312,0.156-.275-0.512-1.018,0.312-.55-0.393-.586c-0.075-1.643.765-3.92,1.434-5.729a23.192,23.192,0,0,1-1.142-2.466l-0.943-.9,0.156-.275-0.549-.311,0.156-.275-0.55-.312,0.156-.275-0.549-.312,0.156-.275-0.549-.311,0.156-.275-0.943-.9,0.156-.276-0.943-.9,0.156-.275-1.336-1.485c-0.458-.724-2.541-4.818-3.7-5l-0.587.4-0.549-.312-0.312.55-0.549-.312-0.312.55-0.55-.311-0.312.55-0.549-.312c-0.735.772-5.862,2.185-6.891,1.907l-0.312.55q-0.275-.156-0.55-0.311c-1.218.71-1.819,0.273-3.133,0.4l-1.448.633-1.255-.349-0.156.275a2.542,2.542,0,0,1-1.411-.073,11.13,11.13,0,0,1-.9.944l0.393,0.587-0.468.825,0.393,0.587-0.349,1.256,0.512,1.017-0.468.825,0.393,0.587c0.052,1.276-.842,1.575.281,2.7,0.372,1.032,2.24,1.2,3.14,2.145l-0.156.275,1.1,0.623c-0.013.235-.025,0.471-0.038,0.706l0.824,0.467-0.156.275a3.691,3.691,0,0,0,.906,1.6,3.875,3.875,0,0,0,.044,1.842l0.274,0.156-0.468.825,0.275,0.156-0.468.825,0.275,0.156c-0.325,1.5-2.917,4.733-3.67,5.188l-1.136.083-0.312.55L96,184.664l-1.879.752-0.549-.312-1.017.514-1.1-.624c-1.156.307-4.162-1.456-5.1-2.529l0.156-.275-1.1-.624,0.156-.275a4.045,4.045,0,0,0-.905-1.6,3.544,3.544,0,0,0-.044-1.842l-0.275-.156,0.312-.55-0.275-.156,0.312-.55-0.275-.156,0.624-1.1-0.275-.156,2.771-4.244,0.705,0.037a5.62,5.62,0,0,1,.349-1.256,2.88,2.88,0,0,1-.437-2.429l-0.549-.312,0.312-.55-0.631-1.448,0.312-.551-0.275-.155a3.334,3.334,0,0,1-.044-1.843l-0.549-.311,0.312-.551L86.5,161.1l0.312-.55-1.217-1.054,0.156-.275a20.614,20.614,0,0,0-3.371-.458l-1.1-.624-0.156.275-0.549-.311-0.156.275-1.1-.624-0.156.275-1.1-.623-0.156.275-1.1-.623-0.156.275-1.1-.623-0.156.275-1.1-.624-0.156.275-3.022-1.714-0.156.275-0.549-.311c-1.3,1.092-2.522,3.773-3.551,5.619-1.234.415-2.568,3.293-3.514,4.914l-2.3,3.419-0.275-.156-3.12,5.5c0.514,0.892.306,1.639,1.143,2.466a3.521,3.521,0,0,0,.044,1.843l0.275,0.156-0.312.55,0.275,0.155-0.312.55,0.275,0.156-0.468.825,0.275,0.156c-0.377,1.8-2.156,3.3-2.927,4.519-0.938.079-1.179,0.633-2.035,1.027l-0.275-.156-1.017.514-0.549-.312-0.156.275-0.98-.192-0.587.394-0.824-.468-0.156.275-0.824-.467-0.156.275-3.846-2.181,0.156-.275-1.1-.624,0.156-.275a3.561,3.561,0,0,1-1.061-1.329l0.156-.275c-1.248-2.507-1.709-4.068.255-7.489l0.936-1.65,0.275,0.156,0.468-.825,0.275,0.155,0.312-.55,0.275,0.156,0.312-.55L46.2,171.32a3.649,3.649,0,0,0,1.6-.908l0.549,0.312,1.448-.633,0.98,0.193,0.312-.55c0.774-.284,2.042-4.09,2.689-5.381l1.441-3.181-0.275-.156,5.26-11.193c-0.75-1.285-.552-1.43-2.553-2.539l0.156-.275-3.533-2.731L54.439,144,52.4,142.481l0.156-.275-0.824-.467,0.156-.275L51.062,141l0.156-.275-0.824-.467,0.156-.275-0.824-.468,0.156-.275-0.549-.312,0.156-.275-1.1-.623q0.019-.353.037-0.706l-1.217-1.054-0.156.275L46.5,136.23l-0.156.275-0.98-.193-0.312.55-0.549-.311a3.278,3.278,0,0,1-1.6.907l-0.275-.156-0.312.55-0.275-.155-1.017.513-0.705-.037c-0.578.278-.352,0.636-1.173,0.789-0.353,1.129-.211,2.278-0.461,3.373l-2.771,4.244c-0.939.07-1.181,0.634-2.035,1.027L33.6,147.45l-1.017.514-0.549-.312-0.587.394-0.549-.311-0.587.394-1.1-.623c-1.533.35-5.32-3.172-5.731-3.978L23.4,142.391l-0.549-.312-0.2-1.567-0.275-.156,0.312-.55-0.512-1.018c0.012-.82,1.582-5.112,2.727-6.086l0.275,0.155,0.312-.55,0.275,0.156,0.468-.825,1.136-.082c3.155-1.47,4.455-.729,8.308.714l1.173-.788,0.705,0.036,0.9-.944,0.275,0.156,0.9-.944,0.705,0.036L40.8,129l0.705,0.037,0.78-1.375-0.905-1.6c0.013-.235.025-0.471,0.037-0.706l-0.549-.312q0.019-.352.037-0.706l-0.549-.311,0.156-.275a3.47,3.47,0,0,0-.905-1.6l0.312-.55c-0.773-.74-2.415-6.718-2.136-7.755l-0.549-.312,0.312-.55c-0.706-1.224-.271-1.818-0.4-3.135l-0.631-1.448,0.312-.55-0.275-.156-0.081-1.137-0.275-.156a0.521,0.521,0,0,1-.119-0.431,10.149,10.149,0,0,0-3.527-.183L32,105.467l-0.587.394-0.549-.312-0.587.394-1.255-.348-1.017.514-0.824-.468-0.587.394-1.255-.348-1.017.513-0.824-.467-0.587.394-1.255-.348-1.017.513-0.824-.467-0.587.394-0.98-.192c-0.475.889-2.519,3.918-3.045,4.088l-0.743.669-0.275-.155-0.312.55-0.275-.156a1.081,1.081,0,0,1-1.136.082c-0.982,1-1.915.431-3.015,0.835-2.149-1.2-4.158-2.6-5.887-3.7L3.485,107.1l-0.549-.312-0.319-2L2.223,104.2l0.312-.55-0.512-1.017,0.624-1.1c-0.386-1.233,1.908-5.155,3.12-5.5,1.154-1.266,4.376-2.144,6.148-1.238l0.156-.275,1.1,0.623c2.1,0.421,2.966,2.274,4.907,3.511l13.938-4.089c1.58-.437,4.311-0.446,5.48-1.98l-0.275-.156,0.661-1.806-0.275-.156,0.468-.825L37.8,89.489l0.624-1.1a33.179,33.179,0,0,1,3.5-10.01L41.1,77.911l0.156-.275-3.3-1.87,0.156-.275L35.1,73.777l0.156-.275-5.219-2.961,0.156-.275L17.628,61.687c-0.846-.584-3.331-2.84-4.788-3.08l-0.156.275-0.549-.312-0.156.275L11,58.653l-0.312.55-0.549-.312-0.312.55a3.808,3.808,0,0,0-1.841.046l-0.156.275L7,59.3l-0.587.394-1.1-.623-0.156.275A7.411,7.411,0,0,1,1.629,56.61a4.457,4.457,0,0,1-1.3-2.191l0.156-.275-0.549-.312,0.193-.981-0.512-1.017,0.349-1.256-0.275-.156c0.3-2.727,2.309-4.411,3.744-6.6l1.136-.083,0.312-.55,1.136-.083,0.312-.55,0.98,0.192L7.9,42.355l0.549,0.312,0.587-.394L9.86,42.74l0.156-.275,3.727,1.751-0.156.275,0.824,0.467-0.156.275L15.079,45.7l-0.156.275,0.668,0.742-0.037.706L16.1,47.735l-0.156.275L16.34,48.6l-0.312.55,0.512,1.017-0.312.55,0.512,1.017-0.156.275,3.846,2.181c0.84-.164,2.154.919,3.177,1.439l0.824,0.468,0.156-.275,4.944,2.8a25.193,25.193,0,0,1,6.08,2.722l3.022,1.714,0.156-.275,9.651,4.748a16.385,16.385,0,0,1,3.751-4.052l0.624-1.1,0.275,0.156,0.624-1.1,0.275,0.156,0.468-.825,0.275,0.156L55.2,60.1l0.275,0.156,0.468-.825,0.275,0.156,0.468-.825,0.275,0.156,0.468-.825L57.7,58.247l0.468-.825,0.705,0.037L59.93,56.24l-0.275-.156c0.429-1.6-.86-3.964-1.268-5.445L57.95,48.21,57.4,47.9l0.156-.275a5.53,5.53,0,0,0-1.143-2.466l0.312-.55L56.177,44.3l0.312-.55-0.549-.312,0.312-.55L55.7,42.572l0.312-.55-0.549-.312-0.319-2L53.8,35.679a3.007,3.007,0,0,0-1.529-.5l-0.156.275-1.1-.623-0.156.275c-1.887-.425-3.5-2.267-4.788-3.08l-0.081-1.137-0.549-.312-0.2-1.567-0.275-.156,0.312-.55-0.512-1.018,0.468-.825L44.963,26.3a14.888,14.888,0,0,1,2.378-4.831l0.275,0.156,0.468-.825,0.275,0.156,0.468-.825L49.1,20.288l0.743-.669,0.705,0.037,0.312-.55,0.275,0.156,1.017-.513L52.7,19.06l0.587-.394,0.549,0.312,0.587-.394,0.824,0.467,0.156-.275a12.2,12.2,0,0,1,5.219,2.961l-0.156.275,0.549,0.312-0.156.275,0.549,0.312-0.037.706,0.549,0.312-0.037.706,0.275,0.156-0.312.55,0.393,0.587-0.312.55,0.393,0.587c-0.054,1.534-1.545,3.567-1.828,5.143l1.417,2.622,0.943,0.9-0.037.706L63.641,36.9,63.6,37.6l0.824,0.468,0.081,1.137,0.549,0.312-0.156.275,0.549,0.312-0.156.275,0.549,0.312-0.156.275,0.549,0.312-0.037.706,0.824,0.467-0.037.706,0.824,0.467-0.037.706,0.668,0.742-0.156.275,0.549,0.312-0.156.275,0.549,0.312-0.156.275,0.549,0.312-0.156.275,0.549,0.312L69.86,47.7l0.549,0.312-0.156.275a2.431,2.431,0,0,0,1.492,1.21l0.587-.394,0.549,0.312,0.312-.55,0.549,0.312c0.872-.907,1.725-0.709,2.74-0.99,1.581-.438,5.159-2.051,6.735-1.632L83.53,46l0.549,0.312c1.625-.9,3.57-0.435,5.406-0.569l0.587-.394,0.549,0.312,0.587-.394,0.549,0.312,0.156-.275,0.705,0.037,0.468-.825c-0.312-.919.195-0.763,0.231-1.687l-0.393-.587,0.624-1.1-0.275-.156,0.349-1.256-3.415-2.3c-0.073-1.027-.73-1.525-1.143-2.466L88.94,31.983l-0.275-.156,0.624-1.1c-0.361-1.54,2.882-4.768,3.669-5.189l0.705,0.037,0.312-.55,0.705,0.037,1.879-.752,0.549,0.312,0.587-.394,0.824,0.468,0.587-.394,1.1,0.623,0.156-.275a8.242,8.242,0,0,1,3.141,2.145l1.1,0.623c-0.012.235-.025,0.471-0.037,0.706l0.824,0.468,0.081,1.137,0.668,0.742q-0.1.49-.193,0.981l0.512,1.018-0.468.825,0.275,0.156a2.756,2.756,0,0,1-.506,1.531l0.275,0.156-2.459,3.694-0.7-.037-0.468.825-0.7-.037L100.639,40.8l0.274,0.156q-0.1.49-.193,0.981L101,42.093l-0.312.55,0.393,0.587c0.132,1.544-.36,1.907,1.536,3.052,1.005-.314.693,0.1,1.686,0.229l0.156-.275,0.824,0.467,0.156-.275,1.1,0.623,0.156-.275,0.824,0.468,0.156-.275,0.825,0.468c0.051-.092.1-0.183,0.156-0.275l1.1,0.623,0.156-.275,1.648,0.935,0.156-.275c1.024,0.21,2.462,1.357,3.334,1.164,0.826-.3.9-1.558,1.679-2.319l0.274,0.156,0.936-1.65,0.275,0.156,1.56-2.75,0.275,0.156,0.936-1.65,0.274,0.156,1.873-3.3,0.274,0.156,0.624-1.1L124.3,37.5l1.248-2.2,0.275,0.156,1.248-2.2,0.274,0.156,1.561-2.75a20.267,20.267,0,0,0,3.357-4.639q-0.315-.724-0.631-1.448l0.156-.275-0.549-.312q-0.1-.784-0.2-1.568l-0.275-.156,0.312-.55q-0.255-.509-0.512-1.017l0.662-1.806-0.275-.156,0.936-1.65c1.784-3.146,3.563-3.538,6.142-3.786l1.017-.513,0.824,0.467,0.156-.275a2.779,2.779,0,0,1,1.53.5c1.123-.252,3.922,2.173,4.513,2.924l-0.156.275,0.824,0.467,0.081,1.137,0.55,0.312c-0.013.235-.025,0.471-0.038,0.706q0.317,0.724.631,1.448a9.426,9.426,0,0,1-4.68,8.25l-2,.321-0.586.394-0.55-.312-1.017.513-0.275-.156-1.872,3.3c0.264,1.333-1.837,3.011-2.221,4.556l0.274,0.156q-1.247,2.2-2.5,4.4l0.275,0.156-6.627,12.962a0.553,0.553,0,0,1,.119.431,20.855,20.855,0,0,1,4.476,3.63l1.648,0.935-0.156.275,1.1,0.623-0.156.275,0.824,0.467-0.156.275,0.824,0.467-0.156.275,1.1,0.623a21.32,21.32,0,0,0,2.123,2.658l7.4-3.438c0.565-1.863-.309-5.1,1.94-7.26l0.274,0.156,0.624-1.1,0.275,0.156,0.624-1.1L149.18,53.8a3.891,3.891,0,0,0,1.6-.908,3.758,3.758,0,0,0,1.841-.046l0.156-.275,0.824,0.467,0.587-.394,1.1,0.623,0.156-.275c2.258,0.513,3.943,2.737,4.751,3.786l0.824,0.468-0.156.275a3.793,3.793,0,0,0,.9,1.6,3.573,3.573,0,0,0,.044,1.843l0.275,0.156c0.063,0.93-.845,5.163-2.178,6.4l-0.274-.156-0.468.825-0.275-.156-0.624,1.1L158,68.976a3.89,3.89,0,0,0-1.6.908,3.566,3.566,0,0,0-1.841.046L154.4,70.2l-0.824-.468-0.587.394-3.608-1.32-0.743.669-0.275-.156-0.312.55-0.274-.156-0.312.55-0.275-.156-0.312.55-0.275-.156-0.624,1.1-0.7-.037-2.228,2.008q0.315,0.724.631,1.448l-0.156.275,0.942,0.9-0.156.275,0.668,0.742c-0.012.235-.025,0.471-0.037,0.706l0.549,0.312q0.04,0.568.082,1.137l0.942,0.9-0.156.275a3.531,3.531,0,0,0,.906,1.6l-0.312.55,0.549,0.312,0.081,1.137,1.462,4.464,0.081,1.137,1.373,0.779c1.069-.486.415,0.075,1.411,0.073l0.587-.394,0.549,0.312,0.156-.275,0.55,0.312,0.156-.275,0.549,0.312,0.156-.275,0.549,0.312,0.587-.394L157,90.582l0.587-.394,0.824,0.468,0.586-.394,0.55,0.312L159.7,90.3l0.549,0.312,0.156-.275,0.549,0.312,0.156-.275,0.55,0.312,1.017-.513,0.824,0.468,0.587-.394,0.824,0.467,0.587-.394,0.824,0.468,0.156-.275c1.532-.238,1.686-0.968,2.7-2.833l0.274,0.156,1.211-1.494,2.9-1.265,0.55,0.312,1.017-.513,0.824,0.467,0.156-.275,0.549,0.312,0.156-.275a13.021,13.021,0,0,1,4.789,3.08l-0.156.275,0.824,0.468,0.081,1.137,0.549,0.312q0.1,0.784.2,1.567l0.275,0.156-0.312.55,0.512,1.017-0.468.825,0.393,0.587c-0.157,1.917-2.432,4.524-3.432,6.051-0.939.07-1.18,0.633-2.034,1.027l-0.275-.156-1.018.513-0.549-.311-0.587.394-0.549-.312-0.587.394-1.1-.623c-2.052.5-4.772-3.5-5.575-4.253a7.6,7.6,0,0,1-2.154.6L161.6,99.74l-0.549-.312-0.587.394-1.567.2c-1.317.364-2.642,1.308-4.151,0.917l-0.312.55-0.549-.312-0.312.55-0.549-.311-0.312.55-0.55-.312-0.312.55-0.705-.037-0.624,1.1c0.256,0.8-.063.656-0.075,1.412l0.275,0.156-0.312.55,0.274,0.156-0.312.55,0.275,0.156-0.312.55,0.275,0.155q-0.175.629-.35,1.256l0.275,0.156-0.468.825,0.393,0.587-0.624,1.1,0.275,0.156-0.312.55,0.275,0.156-0.468.825,0.274,0.155-0.468.825,0.275,0.156-0.468.825,0.275,0.156-0.468.825,0.274,0.156-0.624,1.1,0.275,0.156-0.624,1.1,0.275,0.156-0.624,1.1,0.274,0.156c-0.293,1.35-1.583,2.46-1.322,3.611l-0.156.275,6.985,4.327-0.156.275,5.338,3.391,3.021,1.714-0.156.275,6.437,4.015,3.021,1.714a23.09,23.09,0,0,0,7.535,4.638,11.262,11.262,0,0,1,5.48-1.981l2.079,0.816a5.693,5.693,0,0,1,2.628,1.128l-0.156.275q0.551,0.31,1.1.623l-0.156.275,0.549,0.312a9.856,9.856,0,0,0,1.3,2.19,3.522,3.522,0,0,0,.044,1.843l0.275,0.156-0.312.55,0.274,0.155-0.312.551,0.275,0.155-0.468.825,0.275,0.156-0.468.825,0.274,0.156C191.005,154.907,188.721,156.438,187.811,157.865ZM65.862,104.093c1.283-1.6-.889-4.843-4.844-7.252s-8.21-3.074-9.493-1.478c-9.776,12.122-9.636,26.974,13.146,45.68a56.5,56.5,0,0,0,12.816,7.772c4.145,1.965-5.572-6.126-8.491-9C53.266,124.324,57.8,114.108,65.862,104.093Zm60.765-25.686c0.038-.958-2.256-3.135-3.478-3.487-1.729-.5-4.827-1.006-4.29-2.055,1.387-2.713.171-6.264-3.838-6.792-1.418-.187-2.557.36-3.972,0.193a10.916,10.916,0,0,1-3.871-1.54c-2.482-1.416-4.985-3.735-6.938-2.03-1.331,1.161,1.08,3.751-.429,4.74a3.834,3.834,0,0,1-2.075.185,15.3,15.3,0,0,0-4.783.216c-2.986.681-3.6,1.439-3.555,2.96,0.05,1.65,2.185,4.383,4.826,5.12,3.167,0.885,3.74-.737,7.261.253,2.972,0.835,2.983,2.665,3.32,4.349,0.635,3.176,4.263,5.126,7.751,4.662,1.136-.151,3.238-0.7,3.459-1.713,0.178-.819-1.045-2.067-1.485-2.939-1.548-3.069,2.97-1.293,5.507-.658C122.462,80.478,126.519,81.2,126.627,78.407Zm17.105,27.881c0.364-1.345-1.148-3.591-2.229-3.664-1.53-.1-4.4.249-3.517-1.395,2.291-4.249,2.308-8.775-1.453-8.141-1.33.224-2.637,1.374-3.971,1.625a4.775,4.775,0,0,1-3.28-.82c-1.957-1.122-3.626-3.5-6.129-.454-1.705,2.07-.219,4.85-2.04,6.741a4.235,4.235,0,0,1-2.1.967,15.254,15.254,0,0,0-4.777,1.934c-3.168,1.968-4.031,3.232-4.506,5.334-0.514,2.279.652,5.353,3,5.477,2.812,0.15,3.929-2.3,7.053-2.128,2.637,0.147,2.022,2.691,1.778,4.918-0.46,4.2,2.441,5.678,6.029,3.84,1.169-.6,3.423-2.078,3.986-3.565,0.455-1.2-.321-2.519-0.455-3.583-0.475-3.741,3.361-2.813,5.639-2.8C138.929,110.593,142.672,110.209,143.732,106.288Z"/>
</svg>
