<!DOCTYPE svg PUBLIC "-//W3C//DTD SVG 20010904//EN" "http://www.w3.org/TR/2001/REC-SVG-20010904/DTD/svg10.dtd">
<svg version="1.0" xmlns="http://www.w3.org/2000/svg" width="429px" height="439px" viewBox="0 0 4290 4390" preserveAspectRatio="xMidYMid meet">
<g id="LibertyCounty" fill="#820000" stroke="none">
 <path d="M3130 1996 c-11 -22 -12 -31 -2 -46 7 -11 12 -30 12 -42 -1 -25 -36 -72 -61 -80 -16 -6 -79 -164 -79 -199 0 -11 -9 -38 -19 -62 -24 -53 -46 -119 -76 -227 -27 -94 -25 -102 33 -121 20 -7 46 -18 57 -24 23 -14 212 -114 300 -159 53 -28 67 -30 124 -26 l64 5 28 85 c28 83 91 287 131 425 11 39 26 85 34 103 l14 32 110 0 110 0 0 175 0 175 -233 0 c-129 0 -301 3 -383 6 l-149 7 -15 -27z"/>
 </g>
<g id="MatagordaCounty" fill="#e10000" stroke="none">
 <path d="M1288 4230 c2 -15 -1 -31 -7 -34 -7 -5 -3 -18 14 -40 33 -44 33 -84 0 -92 -28 -7 -35 -5 -113 25 l-53 20 7 -217 c3 -119 11 -225 16 -234 9 -18 114 -93 145 -105 10 -4 43 -23 73 -43 30 -20 107 -67 170 -105 82 -48 133 -87 177 -134 34 -36 64 -63 67 -60 3 3 8 25 11 50 18 156 22 169 51 169 20 0 64 41 57 53 -10 16 -8 70 4 97 6 14 14 33 17 43 4 13 17 17 61 17 59 0 117 22 113 43 -6 29 16 65 62 101 27 21 48 41 48 45 -1 3 1 16 6 29 5 15 15 22 34 22 24 0 22 3 -23 32 -27 17 -80 51 -117 75 -37 23 -71 43 -75 43 -5 0 -45 23 -91 50 -77 46 -218 117 -277 140 -24 9 -25 8 -25 -30 0 -29 -5 -42 -20 -50 -11 -6 -26 -7 -33 -3 -6 4 -19 6 -28 5 -9 -2 -48 13 -87 33 -39 19 -75 35 -82 35 -6 0 -32 11 -58 24 l-48 24 4 -28z"/>
 </g>
<g id="GalvestonCounty" fill="#a87000" stroke="none">
 <path d="M2962 3329 l54 -105 -58 -100 c-32 -54 -92 -159 -134 -232 l-75 -132 14 -63 c13 -58 15 -60 25 -37 6 14 23 36 37 49 22 21 29 22 51 12 14 -6 36 -11 49 -11 18 0 32 -12 51 -40 25 -37 30 -40 58 -35 17 4 38 15 47 25 19 23 83 50 115 50 24 0 33 23 14 35 -5 3 -10 16 -10 28 0 16 9 26 32 35 l31 11 -6 110 c-5 92 -4 113 9 126 18 18 17 18 65 3 37 -10 39 -14 39 -50 0 -40 17 -51 38 -25 7 8 28 12 52 11 23 -1 40 -1 38 1 -83 70 -198 153 -302 218 -53 33 -186 131 -220 162 -72 64 -72 65 -14 -46z"/>
 <path d="M3430 2930 c0 -7 26 -38 58 -69 32 -31 66 -69 76 -84 14 -23 23 -28 44 -24 36 7 102 -21 102 -42 0 -10 6 -26 14 -36 12 -17 17 -18 53 -6 43 14 87 7 80 -13 -9 -23 10 -38 64 -50 40 -9 55 -18 58 -32 4 -24 18 -33 43 -26 14 3 18 12 16 34 -3 27 -11 33 -93 67 -103 44 -230 101 -294 134 -43 22 -127 96 -146 129 -12 22 -75 37 -75 18z"/>
 </g>
<g id="ChambersCounty" fill="#4ce600" stroke="none">
 <path d="M3479 2612 c12 -17 26 -34 32 -37 25 -16 49 -89 55 -169 6 -78 5 -89 -19 -140 -32 -67 -56 -83 -95 -63 -15 8 -43 21 -63 30 -25 11 -49 35 -78 77 -22 34 -41 68 -41 75 0 12 -21 25 -41 25 -5 0 -3 -12 3 -26 10 -22 10 -28 -5 -39 -21 -15 -21 -22 -3 -57 8 -15 16 -57 18 -95 3 -65 2 -68 -24 -81 -16 -7 -28 -17 -28 -23 0 -5 -10 -13 -22 -18 -31 -11 232 -21 579 -21 l293 0 0 235 0 235 -29 0 c-42 0 -61 9 -61 30 0 13 -10 21 -32 25 -18 4 -45 14 -60 21 -25 13 -29 12 -53 -12 -27 -27 -37 -27 -100 -6 -69 24 -112 36 -150 43 -22 4 -53 11 -69 15 l-29 7 22 -31z"/>
 </g>
<g id="WhartonCounty" fill="#0082ff" stroke="none">
 <path d="M900 3375 c-229 -226 -234 -233 -210 -244 14 -6 41 -21 60 -33 19 -13 85 -55 145 -95 61 -39 129 -83 151 -97 38 -24 45 -35 78 -127 35 -97 39 -104 126 -192 71 -72 92 -89 102 -79 6 6 24 12 38 12 15 0 37 9 50 20 13 11 27 20 31 20 5 0 11 11 15 25 3 14 11 25 16 25 6 0 5 6 -2 15 -7 8 -10 27 -7 42 3 15 1 36 -4 46 -6 10 -7 26 -4 36 8 27 62 80 91 91 13 5 24 16 24 25 0 8 5 15 10 15 6 0 10 6 10 14 0 8 6 21 14 29 8 8 16 29 18 48 2 27 10 37 39 52 27 14 40 29 48 59 7 21 20 42 30 46 16 6 7 19 -58 89 -74 80 -184 156 -433 299 -31 18 -77 46 -100 62 l-44 30 -234 -233z"/>
 </g>
<g id="ColoradoCounty" fill="#ff8200" stroke="none">
 <path d="M714 3054 c31 -25 56 -53 56 -62 0 -9 -31 -51 -68 -94 -62 -70 -89 -103 -232 -276 -33 -41 -61 -65 -79 -68 -20 -4 -31 -15 -40 -39 -6 -18 -19 -36 -27 -39 -12 -4 5 -28 66 -95 45 -49 100 -113 122 -142 22 -30 52 -68 66 -85 15 -18 54 -70 87 -118 33 -47 64 -86 68 -86 4 0 14 15 22 33 20 47 112 127 146 127 7 0 22 12 35 27 18 21 33 27 78 31 45 4 56 8 56 22 0 10 7 20 15 24 8 3 15 12 15 20 0 21 40 96 51 96 5 0 9 9 9 21 0 22 28 78 45 92 6 4 20 6 33 4 13 -3 32 3 43 12 19 15 16 19 -69 107 -85 86 -90 94 -123 188 -31 90 -37 100 -77 124 -69 43 -285 182 -314 203 -50 35 -40 20 16 -27z"/>
 </g>
<g id="WalkerCounty" fill="#e0aa0f" stroke="none">
 <path d="M2165 914 c-11 -8 -84 -54 -162 -101 -143 -85 -143 -85 -143 -122 0 -21 -4 -62 -9 -92 -5 -30 -12 -98 -16 -151 l-6 -98 26 0 c30 0 61 -14 92 -43 18 -16 34 -19 80 -17 32 1 74 2 94 3 37 1 69 -20 69 -45 0 -12 211 -198 225 -198 3 0 5 33 5 74 0 46 5 80 13 88 16 17 38 76 41 109 4 41 14 49 62 49 43 0 44 1 44 32 0 17 -4 70 -10 117 -5 47 -15 159 -21 249 l-12 162 -176 0 c-142 -1 -180 -4 -196 -16z"/>
 </g>
<g id="FortBendCounty" fill="#ff00c5" stroke="none">
 <path d="M1800 3082 c-20 -7 -30 -23 -30 -49 0 -15 -11 -27 -35 -39 -22 -10 -35 -23 -35 -36 0 -10 -11 -36 -25 -56 -14 -20 -25 -40 -25 -44 0 -12 -42 -58 -53 -58 -5 0 -22 -13 -37 -29 -27 -27 -28 -29 -10 -34 34 -9 36 -38 6 -64 -15 -12 -22 -23 -17 -23 16 0 13 -43 -4 -66 -20 -26 -19 -31 8 -38 26 -6 52 -58 43 -89 -3 -12 -1 -46 6 -74 10 -46 14 -53 35 -53 12 0 23 -4 23 -10 0 -5 8 -10 18 -10 9 0 53 -18 97 -39 78 -38 81 -39 107 -23 15 9 107 67 205 127 98 61 201 122 228 135 43 21 111 63 123 75 2 2 -4 39 -13 82 -9 43 -19 88 -21 101 -4 20 -10 22 -63 22 -64 0 -98 22 -88 59 3 12 -3 27 -14 37 -10 9 -19 30 -19 45 0 26 -6 34 -44 66 -8 7 -19 21 -25 30 -9 17 -12 17 -58 0 -95 -36 -124 -40 -147 -19 -12 11 -27 17 -34 15 -8 -3 -30 10 -50 30 -22 20 -43 32 -52 29z"/>
 </g>
<g id="HarrisCounty" fill="#e6dd35" stroke="none">
 <path d="M2847 2667 c-9 -6 -20 -28 -24 -47 -8 -32 -13 -35 -54 -40 -36 -4 -45 -9 -47 -27 -5 -33 -76 -49 -132 -29 -14 4 -54 10 -89 13 -54 3 -69 1 -93 -17 -16 -12 -55 -33 -86 -48 -32 -15 -115 -63 -185 -107 -70 -44 -142 -89 -160 -100 -17 -11 -49 -31 -70 -44 -23 -14 -39 -33 -43 -50 -3 -14 -14 -48 -25 -75 -10 -27 -19 -59 -19 -72 0 -14 -4 -32 -9 -42 -9 -16 -74 -222 -91 -287 -4 -16 -11 -38 -15 -47 -8 -19 9 -25 20 -8 3 6 17 10 31 10 13 0 24 5 24 10 0 6 9 19 20 30 17 17 32 20 92 18 40 -1 80 -5 88 -9 8 -5 41 -11 73 -14 31 -4 64 -13 72 -21 8 -8 35 -22 60 -30 25 -9 45 -19 45 -24 0 -4 11 -15 25 -24 23 -15 26 -15 50 6 14 12 25 29 25 39 0 33 30 52 76 46 33 -3 47 0 59 14 9 9 34 20 55 24 36 6 46 14 93 79 11 16 21 18 58 12 38 -6 56 -17 115 -74 38 -37 90 -84 116 -105 l47 -38 6 28 c6 32 52 172 72 221 8 19 20 32 31 32 27 0 45 36 31 61 -6 12 -8 36 -5 53 8 39 39 116 47 116 3 0 18 11 33 25 15 14 32 25 37 25 6 0 7 5 3 11 -4 6 -8 29 -9 51 -4 59 -32 112 -93 173 -50 50 -54 57 -48 87 3 18 13 38 21 44 14 10 13 16 -5 47 -20 33 -23 35 -47 24 -23 -10 -28 -8 -67 34 -44 50 -83 66 -109 46z"/>
 </g>
<g id="AustinCounty" fill="#7a8ef5" stroke="none">
 <path d="M1455 2489 c-11 -12 -30 -19 -45 -18 -33 3 -58 -8 -99 -44 -23 -19 -41 -27 -57 -24 -28 5 -54 -28 -54 -67 0 -14 -8 -31 -17 -38 -23 -17 -43 -53 -43 -77 0 -10 -7 -24 -15 -31 -8 -7 -15 -20 -15 -30 0 -28 -21 -38 -77 -37 -45 0 -55 -3 -74 -26 -11 -15 -26 -27 -33 -27 -22 0 -71 -28 -98 -57 -39 -41 -140 -237 -132 -257 5 -13 22 -16 90 -16 45 0 105 -4 131 -9 26 -5 92 -15 145 -22 88 -11 99 -11 116 4 10 9 30 17 43 17 14 0 29 4 35 10 5 5 38 13 73 16 53 6 65 11 74 31 5 12 14 23 19 23 5 0 5 7 0 16 -5 9 -7 26 -4 37 3 12 1 18 -5 14 -13 -8 -30 12 -32 38 -3 46 -1 60 9 63 7 3 8 8 1 16 -11 13 -4 56 9 56 8 0 5 44 -4 59 -4 5 1 25 10 45 16 33 37 46 79 46 24 0 49 54 36 78 -9 16 -4 50 12 70 7 8 5 12 -5 12 -8 0 -23 9 -34 21 -18 20 -18 21 14 50 33 31 36 37 26 63 -9 23 -57 20 -79 -5z"/>
 </g>
<g id="MontgomeryCounty" fill="#f57ab6" stroke="none">
 <path d="M2621 1724 c-30 -29 -55 -45 -82 -49 -25 -4 -45 -16 -57 -32 -18 -24 -21 -25 -55 -14 -41 14 -57 9 -57 -18 0 -20 -69 -91 -89 -91 -7 0 -30 14 -51 30 -21 17 -45 30 -54 30 -10 0 -32 12 -51 27 -18 15 -41 27 -52 28 -10 1 -48 8 -85 15 -37 8 -71 10 -75 6 -5 -4 -11 -150 -15 -324 -4 -174 -11 -366 -16 -427 -4 -60 -7 -111 -6 -113 3 -4 64 31 190 109 l112 69 179 0 179 0 28 73 c15 39 35 81 44 93 18 22 77 54 98 54 22 0 47 46 36 67 -21 41 12 55 64 28 34 -17 35 -16 63 81 10 38 26 87 35 109 25 66 21 81 -34 124 -27 21 -76 65 -110 97 -33 32 -68 61 -77 65 -12 4 -32 -8 -62 -37z"/>
 </g>
<g id="BrazoriaCounty" fill="#df73ff" stroke="none">
 <path d="M2250 3821 c0 -10 -24 -39 -54 -65 -42 -36 -56 -54 -58 -78 -4 -47 -54 -78 -124 -78 -47 0 -54 -2 -54 -20 0 -11 -6 -29 -12 -40 -10 -16 -10 -24 0 -40 6 -11 12 -26 12 -33 0 -17 -74 -77 -94 -77 -16 0 -22 -43 -17 -112 1 -14 -3 -29 -8 -32 -6 -4 -8 -13 -4 -22 3 -8 -2 -23 -11 -33 -15 -16 -15 -19 4 -36 11 -10 20 -23 20 -30 0 -18 44 -55 67 -55 11 0 26 -7 33 -15 17 -21 53 -19 100 5 22 11 59 20 83 20 41 0 45 -2 51 -30 4 -20 11 -30 24 -30 21 0 42 -38 42 -76 0 -17 8 -28 26 -36 22 -10 25 -16 19 -44 l-6 -33 68 -3 67 -3 7 -35 c4 -19 15 -74 25 -121 l18 -87 56 -6 c30 -3 76 -9 101 -12 45 -6 46 -5 55 28 8 26 15 33 35 33 25 0 25 0 17 50 -14 84 -12 98 28 168 22 38 47 83 57 100 10 18 25 44 35 58 9 15 35 57 56 95 21 38 47 82 57 99 l18 30 -51 100 c-28 55 -54 107 -58 115 -4 8 -29 29 -56 48 -48 33 -133 110 -185 168 -57 64 -136 123 -175 130 -21 3 -52 13 -68 21 -16 8 -38 17 -50 18 -96 16 -96 16 -96 -4z"/>
 </g>
<g id="WallerCounty" fill="#73dfff" stroke="none">
 <path d="M1570 2261 c0 -17 -4 -33 -10 -36 -5 -3 -10 -15 -10 -25 0 -26 -43 -54 -70 -45 -14 4 -20 2 -21 -9 -4 -51 -3 -76 4 -76 14 0 7 -41 -8 -46 -17 -7 -21 -60 -5 -66 13 -4 32 -116 25 -149 -3 -14 -19 -39 -35 -54 -17 -16 -30 -34 -30 -41 0 -6 -7 -17 -15 -24 -8 -7 -15 -20 -15 -30 0 -9 -10 -22 -22 -28 l-23 -11 23 -7 c19 -6 22 -13 22 -65 l0 -58 45 -7 c25 -3 45 -10 45 -13 0 -8 378 -37 384 -30 7 8 13 229 7 229 -4 0 -20 -13 -36 -30 -16 -16 -39 -30 -50 -30 -12 0 -43 -16 -68 -35 -76 -58 -88 -46 -52 53 14 38 25 77 25 86 0 9 4 24 9 34 11 18 49 140 76 237 9 33 23 80 32 105 36 104 38 99 -48 142 -43 21 -86 38 -98 38 -11 0 -23 5 -26 10 -3 6 -17 10 -31 10 -20 0 -24 -5 -24 -29z"/>
 </g>

</svg>